<svg xmlns="http://www.w3.org/2000/svg" width="24" height="24" viewBox="0 0 24 24" fill="none" stroke="#2b3a42" stroke-width="2" stroke-linecap="round" stroke-linejoin="round">

  <path d="M12 3c-4.5 0-8 3.6-8 8 0 3.5 2.3 6.5 5.5 7.6v-2.1c-1.8.4-2.3-.8-2.3-.8-.3-.8-.9-1-0.9-1-.7-.5.1-.5.1-.5.8.1 1.2.8 1.2.8.7 1.2 1.9.9 2.3.7.1-.5.4-.9.7-1.1-2-.2-4.1-1-4.1-4.5 0-1 .3-1.8.9-2.5-.1-.2-.4-1.2.1-2.5 0 0 .7-.2 2.5.9.7-.2 1.4-.3 2.1-.3s1.4.1 2.1.3c1.8-1.1 2.5-.9 2.5-.9.5 1.3.2 2.3.1 2.5.6.7.9 1.5.9 2.5 0 3.5-2.1 4.3-4.1 4.5.4.3.8.9.8 1.9v2.8C17.7 17.7 20 14.6 20 11c0-4.4-3.5-8-8-8z"></path>

</svg>