<?xml version="1.0" encoding="UTF-8"?>
<svg version="1.1" xmlns="http://www.w3.org/2000/svg" width="179" height="66">
<path d="M0 0 C59.07 0 118.14 0 179 0 C179 21.78 179 43.56 179 66 C119.93 66 60.86 66 0 66 C0 44.22 0 22.44 0 0 Z " fill="#FCF9F9" transform="translate(0,0)"/>
<path d="M0 0 C0.66 0 1.32 0 2 0 C2 1.32 2 2.64 2 4 C2.78375 4.061875 3.5675 4.12375 4.375 4.1875 C5.24125 4.455625 6.1075 4.72375 7 5 C8.3125 7.5625 8.3125 7.5625 9 10 C9.680625 8.7625 9.680625 8.7625 10.375 7.5 C10.91125 6.675 11.4475 5.85 12 5 C12.66 5 13.32 5 14 5 C13.01 8.3 12.02 11.6 11 15 C10.01 15 9.02 15 8 15 C5 9.375 5 9.375 5 6 C4.34 6 3.68 6 3 6 C3 8.97 3 11.94 3 15 C-4.38461538 15.36923077 -4.38461538 15.36923077 -7.5 13.5 C-7.995 13.005 -8.49 12.51 -9 12 C-9.99 13.485 -9.99 13.485 -11 15 C-12.32 14.67 -13.64 14.34 -15 14 C-13.68 12.35 -12.36 10.7 -11 9 C-11.309375 8.236875 -11.61875 7.47375 -11.9375 6.6875 C-12.67893593 4.81210323 -13.36228217 2.91315348 -14 1 C-11.13275314 1.57344937 -10.1385485 1.8614515 -8 4 C-7.34 3.01 -6.68 2.02 -6 1 C-3.4375 0.875 -3.4375 0.875 -1 1 C-0.67 0.67 -0.34 0.34 0 0 Z " fill="#DAB2B9" transform="translate(131,24)"/>
<path d="M0 0 C0.99 0.99 1.98 1.98 3 3 C0.17091016 6.00386333 -2.69209723 8.97313237 -5.5625 11.9375 C-6.36236328 12.78763672 -7.16222656 13.63777344 -7.98632812 14.51367188 C-14.75757322 21.45074338 -14.75757322 21.45074338 -18.96484375 22.19140625 C-22 22 -22 22 -24 20 C-24.5625 17.3125 -24.5625 17.3125 -24 14 C-21.90203487 11.38931522 -19.53298406 9.18405258 -17 7 C-16.01 7.33 -15.02 7.66 -14 8 C-15.45112126 11.3859496 -17.41675821 13.41675821 -20 16 C-20 16.66 -20 17.32 -20 18 C-16.7413364 16.5735422 -14.5975146 14.83295838 -12.109375 12.3046875 C-11.40039062 11.58925781 -10.69140625 10.87382812 -9.9609375 10.13671875 C-9.23132812 9.39035156 -8.50171875 8.64398438 -7.75 7.875 C-7.00492188 7.12089844 -6.25984375 6.36679687 -5.4921875 5.58984375 C-3.6568658 3.73099228 -1.8263809 1.86762995 0 0 Z " fill="#A02E43" transform="translate(42,21)"/>
<path d="M0 0 C1 1 1 1 1.1875 4.4375 C1 8 1 8 -1 10 C-3.625 10.125 -3.625 10.125 -6 10 C-6 11.32 -6 12.64 -6 14 C-6.99 14 -7.98 14 -9 14 C-9 9.38 -9 4.76 -9 0 C-5.16046631 -0.95988342 -3.67125527 -0.99223115 0 0 Z " fill="#A73F52" transform="translate(90,29)"/>
<path d="M0 0 C0.66 0 1.32 0 2 0 C2 0.99 2 1.98 2 3 C-1.465 4.485 -1.465 4.485 -5 6 C-4.44271087 9.34373475 -3.64826111 12.03312999 -2 15 C-4.96175123 14.38722388 -6.38058783 13.74627478 -9 12 C-9.99 13.485 -9.99 13.485 -11 15 C-12.32 14.67 -13.64 14.34 -15 14 C-13.68 12.35 -12.36 10.7 -11 9 C-11.309375 8.236875 -11.61875 7.47375 -11.9375 6.6875 C-12.67893593 4.81210323 -13.36228217 2.91315348 -14 1 C-11.13275314 1.57344937 -10.1385485 1.8614515 -8 4 C-7.34 3.01 -6.68 2.02 -6 1 C-3.4375 0.875 -3.4375 0.875 -1 1 C-0.67 0.67 -0.34 0.34 0 0 Z " fill="#A3364A" transform="translate(131,24)"/>
<path d="M0 0 C3.375 0.0625 3.375 0.0625 7 1 C9.4375 3.5625 9.4375 3.5625 11 6 C9.02 6.99 9.02 6.99 7 8 C6.01 6.68 5.02 5.36 4 4 C0.78475695 5.40844718 -1.32183868 7.10344786 -3.75 9.625 C-4.36359375 10.25664062 -4.9771875 10.88828125 -5.609375 11.5390625 C-6.06828125 12.02117188 -6.5271875 12.50328125 -7 13 C-7.99 12.34 -8.98 11.68 -10 11 C-10 10.34 -10 9.68 -10 9 C-8.3203125 7.34375 -8.3203125 7.34375 -6.125 5.5 C-4.00964496 3.71066742 -1.95980876 1.95980876 0 0 Z " fill="#A4364A" transform="translate(23,21)"/>
<path d="M0 0 C5.875 0.875 5.875 0.875 7 2 C7.07179964 3.51928038 7.08392007 5.04167482 7.0625 6.5625 C7.05347656 7.38878906 7.04445313 8.21507812 7.03515625 9.06640625 C7.02355469 9.70449219 7.01195313 10.34257813 7 11 C-0.75 11.125 -0.75 11.125 -3 10 C-2.8125 8.125 -2.8125 8.125 -2 6 C0.5625 4.75 0.5625 4.75 3 4 C2.01 4 1.02 4 0 4 C-0.66 4 -1.32 4 -2 4 C-1.34 2.68 -0.68 1.36 0 0 Z " fill="#AC495B" transform="translate(108,28)"/>
<path d="M0 0 C1 1 1 1 1.09765625 3.06640625 C1.08605469 3.89011719 1.07445313 4.71382812 1.0625 5.5625 C1.05347656 6.38878906 1.04445313 7.21507812 1.03515625 8.06640625 C1.02355469 8.70449219 1.01195313 9.34257813 1 10 C-1.64 10 -4.28 10 -7 10 C-7.38218767 8.34385343 -7.71395102 6.67542976 -8 5 C-7 4 -7 4 -4.4375 3.9375 C-3.2309375 3.9684375 -3.2309375 3.9684375 -2 4 C-2 3.01 -2 2.02 -2 1 C-3.65 1.33 -5.3 1.66 -7 2 C-7 1.34 -7 0.68 -7 0 C-4.31633121 -1.3418344 -2.84719317 -0.73004953 0 0 Z " fill="#A4374B" transform="translate(72,29)"/>
<path d="M0 0 C0.99 0 1.98 0 3 0 C3 1.32 3 2.64 3 4 C3.969375 3.979375 4.93875 3.95875 5.9375 3.9375 C9 4 9 4 10 5 C10.07179964 6.51928038 10.08392007 8.04167482 10.0625 9.5625 C10.05347656 10.38878906 10.04445313 11.21507812 10.03515625 12.06640625 C10.02355469 12.70449219 10.01195313 13.34257813 10 14 C9.34 14 8.68 14 8 14 C8 11.36 8 8.72 8 6 C6.35 6 4.7 6 3 6 C3 8.64 3 11.28 3 14 C2.01 14 1.02 14 0 14 C0 9.38 0 4.76 0 0 Z " fill="#A84254" transform="translate(93,25)"/>
<path d="M0 0 C0.99 0 1.98 0 3 0 C3.66 1.65 4.32 3.3 5 5 C5.45375 4.175 5.9075 3.35 6.375 2.5 C6.91125 1.675 7.4475 0.85 8 0 C8.66 0 9.32 0 10 0 C9.01 3.3 8.02 6.6 7 10 C6.01 10 5.02 10 4 10 C2.68 6.7 1.36 3.4 0 0 Z " fill="#A53B4E" transform="translate(135,29)"/>
<path d="M0 0 C0.99 0 1.98 0 3 0 C3 4.62 3 9.24 3 14 C2.01 14 1.02 14 0 14 C0 9.38 0 4.76 0 0 Z " fill="#AC4A5C" transform="translate(76,25)"/>
<path d="M0 0 C0 1.32 0 2.64 0 4 C-6.75 4.125 -6.75 4.125 -9 3 C-8.67 2.01 -8.34 1.02 -8 0 C-4.71023192 -1.09658936 -3.28696233 -0.79953138 0 0 Z " fill="#B96977" transform="translate(114,35)"/>
<path d="M0 0 C0.33 1.32 0.66 2.64 1 4 C1.969375 3.979375 2.93875 3.95875 3.9375 3.9375 C7 4 7 4 8 5 C8.07179964 6.51928038 8.08392007 8.04167482 8.0625 9.5625 C8.05347656 10.38878906 8.04445313 11.21507812 8.03515625 12.06640625 C8.02355469 12.70449219 8.01195313 13.34257813 8 14 C7.34 14 6.68 14 6 14 C6 11.36 6 8.72 6 6 C3.03 5.505 3.03 5.505 0 5 C0 3.35 0 1.7 0 0 Z " fill="#A02E42" transform="translate(95,25)"/>
<path d="M0 0 C0.33 0.66 0.66 1.32 1 2 C2.65 1.34 4.3 0.68 6 0 C6 0.99 6 1.98 6 3 C5.236875 3.2475 4.47375 3.495 3.6875 3.75 C0.7635955 5.10995558 -0.30004356 6.31585826 -2 9 C-2 6.36 -2 3.72 -2 1 C-1.34 0.67 -0.68 0.34 0 0 Z " fill="#E9D7DA" transform="translate(105,30)"/>
<path d="M0 0 C0.66 0 1.32 0 2 0 C2 0.99 2 1.98 2 3 C0.54494642 3.52992692 -0.91418127 4.0486789 -2.375 4.5625 C-3.59316406 4.99755859 -3.59316406 4.99755859 -4.8359375 5.44140625 C-7 6 -7 6 -9 5 C-7.8125 3 -7.8125 3 -6 1 C-3.375 0.8125 -3.375 0.8125 -1 1 C-0.67 0.67 -0.34 0.34 0 0 Z " fill="#B96876" transform="translate(131,24)"/>
<path d="M0 0 C2.04119788 1.61594832 4.04072937 3.2856382 6 5 C6 5.66 6 6.32 6 7 C5.01 7.33 4.02 7.66 3 8 C1.35 6.02 -0.3 4.04 -2 2 C-1.34 1.34 -0.68 0.68 0 0 Z " fill="#A73C4F" transform="translate(39,32)"/>
<path d="M0 0 C1.32 0 2.64 0 4 0 C4 1.98 4 3.96 4 6 C2.68 5.67 1.36 5.34 0 5 C0 3.35 0 1.7 0 0 Z " fill="#F2EAEB" transform="translate(84,31)"/>
<path d="M0 0 C0.66 0 1.32 0 2 0 C2.125 2.375 2.125 2.375 2 5 C1.34 5.66 0.68 6.32 0 7 C-1.32 7 -2.64 7 -4 7 C-4 6.34 -4 5.68 -4 5 C-3.01 4.67 -2.02 4.34 -1 4 C-0.26676204 1.98491642 -0.26676204 1.98491642 0 0 Z " fill="#9D283D" transform="translate(89,32)"/>
<path d="M0 0 C0.33 0.99 0.66 1.98 1 3 C0.67 3.66 0.34 4.32 0 5 C-2.475 4.01 -2.475 4.01 -5 3 C-5 2.34 -5 1.68 -5 1 C-3 0 -3 0 0 0 Z " fill="#CB929C" transform="translate(71,34)"/>
<path d="M0 0 C2.475 0.495 2.475 0.495 5 1 C5.33 1.99 5.66 2.98 6 4 C5.34 4 4.68 4 4 4 C3.67 5.32 3.34 6.64 3 8 C3 6.35 3 4.7 3 3 C2.01 2.67 1.02 2.34 0 2 C0 1.34 0 0.68 0 0 Z " fill="#B66271" transform="translate(85,28)"/>
<path d="M0 0 C1.32 1.65 2.64 3.3 4 5 C3.01 5.33 2.02 5.66 1 6 C-0.32 4.35 -1.64 2.7 -3 1 C-2.01 0.67 -1.02 0.34 0 0 Z " fill="#AA4758" transform="translate(125,33)"/>
</svg>
