<?xml version="1.0" encoding="UTF-8"?>
<svg version="1.1" xmlns="http://www.w3.org/2000/svg" width="34" height="26">
<path d="M0 0 C11.22 0 22.44 0 34 0 C34 8.58 34 17.16 34 26 C22.78 26 11.56 26 0 26 C0 17.42 0 8.84 0 0 Z " fill="#F7EFF0" transform="translate(0,0)"/>
<path d="M0 0 C0 7.26 0 14.52 0 22 C-7.59 22 -15.18 22 -23 22 C-21.35 20.35 -19.7 18.7 -18 17 C-16.60873918 15.59828704 -15.21809821 14.19595854 -13.828125 12.79296875 C-12.30213843 11.25775773 -10.77609546 9.72260277 -9.25 8.1875 C-8.47011719 7.39923828 -7.69023437 6.61097656 -6.88671875 5.79882812 C-6.14550781 5.05439453 -5.40429688 4.30996094 -4.640625 3.54296875 C-3.96547852 2.86258545 -3.29033203 2.18220215 -2.59472656 1.48120117 C-1 0 -1 0 0 0 Z " fill="#FBF6F7" transform="translate(34,4)"/>
<path d="M0 0 C0.99 0.99 1.98 1.98 3 3 C0.17091016 6.00386333 -2.69209723 8.97313237 -5.5625 11.9375 C-6.36236328 12.78763672 -7.16222656 13.63777344 -7.98632812 14.51367188 C-14.75757322 21.45074338 -14.75757322 21.45074338 -18.96484375 22.19140625 C-22 22 -22 22 -24 20 C-24.5625 17.3125 -24.5625 17.3125 -24 14 C-21.90203487 11.38931522 -19.53298406 9.18405258 -17 7 C-16.01 7.33 -15.02 7.66 -14 8 C-15.45112126 11.3859496 -17.41675821 13.41675821 -20 16 C-20 16.66 -20 17.32 -20 18 C-16.7413364 16.5735422 -14.5975146 14.83295838 -12.109375 12.3046875 C-11.40039062 11.58925781 -10.69140625 10.87382812 -9.9609375 10.13671875 C-9.23132812 9.39035156 -8.50171875 8.64398438 -7.75 7.875 C-7.00492188 7.12089844 -6.25984375 6.36679688 -5.4921875 5.58984375 C-3.6568658 3.73099228 -1.8263809 1.86762995 0 0 Z " fill="#A02E43" transform="translate(30,2)"/>
<path d="M0 0 C4.95 0 9.9 0 15 0 C15 0.66 15 1.32 15 2 C14.26394531 2.24492188 13.52789062 2.48984375 12.76953125 2.7421875 C9.69993716 4.13627678 8.00094747 5.6939196 5.6875 8.125 C4.99011719 8.84945313 4.29273438 9.57390625 3.57421875 10.3203125 C3.05472656 10.87460938 2.53523437 11.42890625 2 12 C1.34 11.67 0.68 11.34 0 11 C0 7.37 0 3.74 0 0 Z " fill="#F8F0F1" transform="translate(0,0)"/>
<path d="M0 0 C3.94641327 1.15413973 5.12801063 2.56094659 7.3125 5.96875 C5.3325 6.95875 5.3325 6.95875 3.3125 7.96875 C2.3225 6.64875 1.3325 5.32875 0.3125 3.96875 C-2.90274305 5.37719718 -5.00933868 7.07219786 -7.4375 9.59375 C-8.05109375 10.22539062 -8.6646875 10.85703125 -9.296875 11.5078125 C-9.75578125 11.98992188 -10.2146875 12.47203125 -10.6875 12.96875 C-11.6775 11.97875 -12.6675 10.98875 -13.6875 9.96875 C-12.19307023 8.25782337 -10.66574897 6.57558606 -9.125 4.90625 C-8.27808594 3.96652344 -7.43117188 3.02679687 -6.55859375 2.05859375 C-3.6875 -0.03125 -3.6875 -0.03125 0 0 Z " fill="#A33448" transform="translate(14.6875,2.03125)"/>
<path d="M0 0 C0 4.62 0 9.24 0 14 C-5.46875 10.38671875 -5.46875 10.38671875 -7 9 C-7 6 -7 6 -5.72265625 4.39453125 C-5.17480469 3.87246094 -4.62695312 3.35039062 -4.0625 2.8125 C-3.51722656 2.28269531 -2.97195312 1.75289063 -2.41015625 1.20703125 C-1 0 -1 0 0 0 Z " fill="#FCFAFA" transform="translate(34,5)"/>
<path d="M0 0 C2.04119788 1.61594832 4.04072937 3.2856382 6 5 C6 5.66 6 6.32 6 7 C5.01 7.33 4.02 7.66 3 8 C1.35 6.02 -0.3 4.04 -2 2 C-1.34 1.34 -0.68 0.68 0 0 Z " fill="#A73C4F" transform="translate(27,13)"/>
</svg>
