<?xml version="1.0" standalone="no"?>
<!DOCTYPE svg PUBLIC "-//W3C//DTD SVG 20010904//EN"
 "http://www.w3.org/TR/2001/REC-SVG-20010904/DTD/svg10.dtd">
<svg version="1.0" xmlns="http://www.w3.org/2000/svg"
 width="179.000000pt" height="66.000000pt" viewBox="0 0 179.000000 66.000000"
 preserveAspectRatio="xMidYMid meet">
<metadata>
Created by potrace 1.16, written by Peter Selinger 2001-2019
</metadata>
<g transform="translate(0.000000,66.000000) scale(0.100000,-0.100000)"
fill="#000000" stroke="none">
<path d="M187 401 c-36 -35 -49 -53 -42 -60 8 -8 24 3 55 34 24 25 49 45 54
45 5 0 20 -9 32 -21 12 -12 28 -18 34 -14 16 10 -38 65 -63 65 -10 0 -42 -22
-70 -49z"/>
<path d="M330 355 c-52 -52 -100 -95 -107 -95 -24 0 -13 36 22 70 25 24 32 37
24 44 -13 14 -89 -65 -89 -93 0 -24 26 -51 48 -51 25 0 219 197 206 210 -6 6
-41 -22 -104 -85z"/>
<path d="M760 340 c0 -40 4 -70 10 -70 6 0 10 30 10 70 0 40 -4 70 -10 70 -6
0 -10 -30 -10 -70z"/>
<path d="M940 340 c0 -40 4 -70 10 -70 6 0 10 18 10 39 0 22 5 41 13 43 25 10
37 -4 37 -43 0 -21 5 -39 11 -39 6 0 9 19 7 48 -3 46 -4 47 -35 47 -28 0 -33
4 -33 22 0 13 -4 23 -10 23 -6 0 -10 -30 -10 -70z"/>
<path d="M1190 375 l22 -35 -22 -30 c-29 -40 -15 -54 15 -16 l23 29 17 -27
c10 -14 24 -26 32 -26 10 0 7 10 -11 37 l-25 36 21 29 c27 38 13 51 -16 15
l-22 -28 -14 26 c-7 14 -20 25 -28 25 -10 0 -8 -8 8 -35z"/>
<path d="M1310 400 c0 -5 5 -10 10 -10 6 0 10 5 10 10 0 6 -4 10 -10 10 -5 0
-10 -4 -10 -10z"/>
<path d="M656 361 c-4 -6 4 -9 18 -8 35 3 32 -16 -5 -26 -24 -6 -30 -13 -27
-30 3 -19 10 -22 46 -23 l43 -1 -3 46 c-3 44 -5 46 -35 49 -17 2 -34 -1 -37
-7z m52 -53 c-5 -15 -48 -24 -48 -10 0 14 12 22 33 22 10 0 17 -5 15 -12z"/>
<path d="M812 303 c2 -39 7 -67 13 -66 6 1 11 11 13 22 2 13 9 17 23 14 25 -7
49 14 49 42 0 46 -10 55 -57 55 l-44 0 3 -67z m71 35 c14 -22 1 -48 -23 -48
-15 0 -20 7 -20 28 0 44 22 54 43 20z"/>
<path d="M1065 359 c-6 -8 1 -9 24 -4 24 5 31 3 31 -9 0 -10 -9 -16 -25 -16
-29 0 -51 -32 -32 -48 7 -6 27 -10 45 -10 33 1 33 1 30 47 -3 44 -5 46 -35 49
-17 2 -34 -2 -38 -9z m55 -54 c0 -8 -9 -15 -20 -15 -20 0 -26 11 -13 23 12 13
33 7 33 -8z"/>
<path d="M1310 320 c0 -27 5 -50 10 -50 6 0 10 23 10 50 0 28 -4 50 -10 50 -5
0 -10 -22 -10 -50z"/>
<path d="M1372 320 c11 -27 25 -50 30 -50 5 0 18 21 28 46 23 52 23 54 11 54
-5 0 -16 -17 -24 -37 l-15 -38 -15 38 c-9 20 -20 37 -26 37 -5 0 -1 -22 11
-50z"/>
<path d="M376 322 c-3 -5 8 -21 23 -36 36 -34 54 -16 20 20 -24 25 -35 29 -43
16z"/>
</g>
</svg>
