<?xml version="1.0" standalone="no"?>
<!DOCTYPE svg PUBLIC "-//W3C//DTD SVG 20010904//EN"
 "http://www.w3.org/TR/2001/REC-SVG-20010904/DTD/svg10.dtd">
<svg version="1.0" xmlns="http://www.w3.org/2000/svg"
 width="768.000000pt" height="227.000000pt" viewBox="0 0 768.000000 227.000000"
 preserveAspectRatio="xMidYMid meet">
<metadata>
Created by potrace 1.16, written by Peter Selinger 2001-2019
</metadata>
<g transform="translate(0.000000,227.000000) scale(0.100000,-0.100000)"
fill="#000000" stroke="none">
<path d="M6358 1776 c-61 -16 -111 -56 -145 -113 -35 -61 -44 -175 -18 -253
26 -79 86 -135 160 -150 69 -14 147 -6 192 20 30 18 31 18 36 -1 4 -15 14 -19
51 -19 l46 0 0 150 0 150 -125 0 -126 0 3 -57 3 -58 53 -3 c60 -3 67 -19 26
-51 -17 -14 -41 -21 -68 -21 -76 0 -116 50 -116 145 0 69 20 115 61 139 38 23
92 16 125 -15 l23 -22 56 23 c30 12 55 28 55 36 0 25 -73 84 -123 99 -60 18
-105 18 -169 1z"/>
<path d="M1305 1764 c-182 -67 -325 -185 -404 -333 -122 -232 -98 -480 65
-688 88 -111 196 -185 349 -238 l93 -33 25 27 c34 36 47 64 47 101 0 49 -20
80 -129 195 -31 33 -71 78 -90 100 -18 22 -61 68 -93 103 -42 44 -63 74 -69
102 -11 48 -2 74 56 157 25 35 45 68 45 73 0 4 4 10 8 12 4 2 50 64 102 138
78 112 94 142 98 181 3 36 -1 53 -19 82 -27 41 -28 41 -84 21z"/>
<path d="M2170 1520 l0 -260 65 0 65 0 0 73 c0 65 3 76 24 96 l25 23 18 -29
c10 -16 40 -59 66 -96 l49 -67 79 0 c43 0 79 3 79 8 0 4 -17 30 -38 57 -20 28
-66 90 -101 138 -73 102 -79 76 52 215 43 45 75 87 72 92 -3 6 -41 10 -83 9
l-77 0 -80 -91 -80 -90 -3 91 -3 91 -64 0 -65 0 0 -260z"/>
<path d="M2730 1520 l0 -260 65 0 65 0 0 163 0 162 87 -162 88 -163 82 0 83 0
0 260 0 260 -65 0 -65 0 0 -157 0 -158 -38 65 c-21 36 -60 107 -87 158 l-50
92 -82 0 -83 0 0 -260z"/>
<path d="M3925 1771 c-3 -5 12 -78 33 -163 22 -84 49 -197 61 -250 l22 -98 73
0 73 0 34 158 c18 86 35 148 37 137 4 -28 52 -256 58 -278 5 -15 15 -17 77
-15 l72 3 57 235 c32 129 58 245 58 258 0 21 -4 22 -65 22 -44 0 -67 -4 -69
-12 -2 -7 -11 -53 -20 -103 -10 -49 -22 -112 -28 -140 l-11 -50 -31 150 -31
150 -70 3 -70 3 -29 -138 c-28 -131 -46 -185 -46 -134 0 12 -11 77 -25 143
-14 66 -25 122 -25 124 0 9 -129 3 -135 -5z"/>
<path d="M4680 1520 l0 -260 185 0 185 0 0 60 0 60 -120 0 -120 0 0 200 0 200
-65 0 -65 0 0 -260z"/>
<path d="M5150 1520 l0 -260 200 0 200 0 0 60 0 60 -130 0 -130 0 0 40 0 40
80 0 80 0 0 65 0 65 -80 0 -80 0 0 30 0 30 130 0 130 0 0 65 0 65 -200 0 -200
0 0 -260z"/>
<path d="M6780 1520 l0 -260 205 0 205 0 0 60 0 60 -135 0 -135 0 0 40 0 40
80 0 80 0 0 65 0 65 -80 0 -80 0 0 30 0 30 135 0 136 0 -3 63 -3 62 -202 3
-203 2 0 -260z"/>
<path d="M2320 1011 c-78 -12 -136 -55 -176 -131 -15 -27 -19 -56 -19 -130 0
-102 11 -137 64 -193 59 -64 163 -91 262 -67 39 10 66 25 101 58 26 25 48 50
48 57 0 7 -26 22 -57 33 l-58 21 -26 -25 c-34 -32 -87 -41 -126 -20 -83 43
-85 229 -2 271 45 24 87 19 120 -14 l30 -30 59 21 c33 12 60 26 60 30 0 19
-84 98 -113 107 -48 15 -117 20 -167 12z"/>
<path d="M5988 1010 c-101 -17 -168 -96 -153 -177 14 -75 51 -103 174 -132 82
-20 131 -43 131 -61 0 -19 -46 -40 -88 -40 -36 0 -49 6 -72 30 -32 35 -40 36
-103 14 -30 -10 -47 -22 -47 -32 0 -9 22 -37 49 -62 56 -55 121 -76 206 -67
134 14 214 108 185 216 -17 63 -69 93 -212 121 -63 12 -88 32 -71 58 22 36
104 31 134 -9 l16 -21 61 22 c34 13 62 25 62 29 0 21 -45 73 -77 89 -46 24
-131 33 -195 22z"/>
<path d="M3262 753 l3 -258 68 -3 67 -3 0 158 1 158 48 -155 48 -155 58 0 57
0 32 105 c18 58 40 128 48 155 l16 50 1 -158 1 -158 68 3 67 3 0 255 0 255
-96 3 -96 3 -26 -83 c-14 -46 -36 -121 -48 -166 l-23 -84 -28 99 c-16 54 -38
128 -49 166 l-20 67 -99 0 -100 0 2 -257z"/>
<path d="M3950 750 l0 -260 70 0 69 0 3 152 3 151 46 -149 45 -149 57 -3 56
-3 35 113 c19 62 42 136 50 163 14 49 15 47 15 -113 l1 -163 68 3 67 3 0 255
0 255 -97 3 -97 3 -30 -98 c-16 -54 -38 -126 -47 -161 -20 -72 -22 -70 -54 43
-12 44 -31 110 -42 148 l-19 67 -99 0 -100 0 0 -260z"/>
<path d="M5252 753 l3 -258 67 -3 67 -3 3 156 3 155 82 -152 81 -153 86 -3 86
-3 0 261 0 260 -65 0 -65 0 0 -162 0 -163 -64 115 c-35 63 -74 135 -87 160
l-24 45 -88 3 -87 3 2 -258z"/>
</g>
</svg>
