<?xml version="1.0" encoding="UTF-8"?>
<svg version="1.1" xmlns="http://www.w3.org/2000/svg" width="152" height="152">
<path d="M0 0 C2.375 1.0625 2.375 1.0625 4 3 C5.10373378 6.97344161 5.41543583 9.08999772 3.6875 12.875 C2 15 2 15 0 16 C-2.3329866 16.04022391 -4.66706666 16.04320247 -7 16 C-7.27457031 16.57492188 -7.54914062 17.14984375 -7.83203125 17.7421875 C-9.36645435 20.70839671 -11.21734322 23.42307579 -13.07421875 26.1953125 C-13.37972656 26.79085937 -13.68523438 27.38640625 -14 28 C-13.505 28.99 -13.505 28.99 -13 30 C-12.46492901 34.0130324 -12.66948372 35.53928033 -15.0625 38.875 C-18 41 -18 41 -21.5625 41.5625 C-25 41 -25 41 -27.375 39.4375 C-29 37 -29 37 -29.125 33.6875 C-30.33261906 28.59824826 -32.80529394 27.08111501 -37.08984375 24.30078125 C-41.09393716 22.51103211 -44.34618381 22.57598557 -48.65234375 23.046875 C-51 23 -51 23 -52.765625 21.73046875 C-54.74677933 18.953091 -54.82371454 16.34942381 -55 13 C-54.21270916 10.35183989 -53.47719891 9.37115471 -51.3125 7.6875 C-47.84734082 6.65731754 -45.47182124 7.07004788 -42 8 C-39.5625 10.25 -39.5625 10.25 -38 13 C-38.05800781 13.80179688 -38.11601563 14.60359375 -38.17578125 15.4296875 C-38.25476511 18.13798134 -38.25476511 18.13798134 -36.1640625 20.0546875 C-31.851851 23.14621144 -28.25219441 25.58756772 -22.8125 25.5625 C-18.4651055 24.75080293 -16.50262257 22.88555393 -13.8125 19.4375 C-10.65678608 14.31221056 -10.83295306 11.7379808 -12 6 C-9.26428223 -0.12279692 -6.47692895 -0.44668476 0 0 Z " fill="#1F3061" transform="translate(56,58)"/>
<path d="M0 0 C3.00342896 2.05497771 3.83287356 3.47633714 4.9375 6.9375 C5.01303309 10.63862122 4.34853162 12.16556528 2 15 C-0.11328125 15.63671875 -0.11328125 15.63671875 -2 16 C-2.10854617 18.39706123 -2.18753157 20.78915838 -2.25 23.1875 C-2.28351562 23.86103516 -2.31703125 24.53457031 -2.3515625 25.22851562 C-2.42136101 28.80568905 -2.09599134 30.8409347 -0.234375 33.92578125 C3.98400801 37.84179765 8.84938672 37.31935593 14.38671875 37.3046875 C17.84992413 36.90090571 19.40673255 35.23309142 22 33 C25.5241557 33.06076131 27.91616966 33.27744644 30.875 35.25 C32.36553394 37.56860835 32.80321917 39.24506837 33 42 C32.20817165 45.32567907 31.38570366 46.67858028 28.75 48.875 C25.2492971 50.30710573 23.57255612 50.21618932 20 49 C18.61767557 47.37373596 17.28062485 45.7074998 16 44 C11.28523846 42.31097554 5.91766931 42.42663945 1 43 C-0.7074998 44.28062485 -2.38263741 45.6072711 -4 47 C-7.77910616 47 -10.00693033 46.83289714 -12.9375 44.375 C-14.422273 41.05609564 -14.38534485 38.59655194 -14 35 C-12.6875 32.5625 -12.6875 32.5625 -11 31 C-10.01 31 -9.02 31 -8 31 C-7.67 25.72 -7.34 20.44 -7 15 C-7.99 14.67 -8.98 14.34 -10 14 C-11.85156705 11.50038448 -12.00549601 10.13190426 -11.875 7 C-9.98007966 0.50313027 -6.56213555 -0.93744794 0 0 Z " fill="#1F3061" transform="translate(45,10)"/>
<path d="M0 0 C2.5 1.5625 2.5 1.5625 4 4 C4.25 7.75 4.25 7.75 4 11 C4.680625 11.226875 5.36125 11.45375 6.0625 11.6875 C8.66878737 12.85201138 10.15816754 13.90869338 12.3125 15.6875 C14.39808014 17.25963666 15.41389123 18.01116398 18.05078125 17.9609375 C18.73527344 17.82945313 19.41976562 17.69796875 20.125 17.5625 C24 17 24 17 26.9375 18.625 C29.23807894 21.27415151 29.91493434 22.51230789 30 26 C29.21133286 29.68044663 28.35388568 30.75067145 25.25 32.9375 C22 34 22 34 18.8125 33.4375 C15.77443152 31.88470944 14.5812709 30.99609223 13 28 C12.91363281 27.04738281 12.82726562 26.09476563 12.73828125 25.11328125 C11.78338678 21.08655696 10.42119388 20.17553099 7 17.9375 C3.14176919 15.6906185 0.60338248 14.36405749 -3.8125 15.5 C-8.89904666 17.90604635 -11.96351054 21.81331591 -14 27 C-14.18619747 29.6533139 -14.07125159 32.16843529 -13.91015625 34.8203125 C-14 37 -14 37 -16 39.6875 C-19.96510535 41.42223359 -22.92923915 41.50345595 -27 40 C-29.0625 37.875 -29.0625 37.875 -30 35 C-29.88200002 31.57800046 -29.64983667 29.08306112 -27.875 26.125 C-26 25 -26 25 -22.75 24.9375 C-17.62019428 23.65504857 -16.10622012 21.17195337 -13.296875 16.83984375 C-11.57959344 13.07941093 -11.70156908 10.19282371 -11.98828125 6.140625 C-12 4 -12 4 -10.5 1.375 C-6.94819263 -0.57849405 -3.96174494 -0.78747799 0 0 Z " fill="#1F3061" transform="translate(116,48)"/>
<path d="M0 0 C2.68601216 1.90848233 3.7337462 3.32549038 4.9375 6.375 C5.0221688 9.93108969 3.83947665 12.00233435 2 15 C-1.54564069 16.77282034 -5.64997308 16.42632429 -9.375 15.25 C-13.13860888 14.89156106 -15.67979069 16.43787942 -19.01171875 18.08984375 C-21 19 -21 19 -23 19 C-23.144375 19.928125 -23.28875 20.85625 -23.4375 21.8125 C-24 25 -24 25 -25 28 C-24.01751044 30.71779992 -24.01751044 30.71779992 -22.5625 33.5625 C-20 38.82016349 -20 38.82016349 -20 41 C-19.2575 40.9175 -18.515 40.835 -17.75 40.75 C-15 41 -15 41 -12.6875 42.5 C-10.62980317 45.54843975 -10.4119205 47.47707701 -10.62109375 51.09375 C-11 53 -11 53 -12.5625 55.5 C-15.99136114 57.61006839 -18.04220351 57.62491523 -22 57 C-24.9375 54.875 -24.9375 54.875 -27 52 C-27.45819887 48.79260791 -27.59541635 46.92774176 -25.82421875 44.16796875 C-24.70899354 41.91990975 -24.70899354 41.91990975 -25.8984375 39.2734375 C-26.38570312 38.31695312 -26.87296875 37.36046875 -27.375 36.375 C-30 31.13903743 -30 31.13903743 -30 29 C-31.11375 29.12375 -31.11375 29.12375 -32.25 29.25 C-35 29 -35 29 -37.25 27.375 C-39.4094567 24.44430877 -39.92579943 22.63582815 -40 19 C-37.86956522 14.43478261 -37.86956522 14.43478261 -35 13 C-28.76470588 12.76470588 -28.76470588 12.76470588 -25.5625 13.75 C-21.99785965 14.09776979 -19.91410114 12.65887128 -16.8671875 10.91015625 C-15 10 -15 10 -12 10 C-11.9175 9.0925 -11.835 8.185 -11.75 7.25 C-10.19917288 0.52974917 -6.63337192 -0.94762456 0 0 Z " fill="#1F3061" transform="translate(109,10)"/>
<path d="M0 0 C3.88861572 0.70702104 5.07220046 1.53191599 7.4375 4.625 C7.7675 5.285 8.0975 5.945 8.4375 6.625 C10.97774004 7.10074438 13.43801464 7.46507547 16 7.75 C16.71091797 7.83636719 17.42183594 7.92273438 18.15429688 8.01171875 C19.91439312 8.22434783 21.67584164 8.42572697 23.4375 8.625 C23.72625 7.985625 24.015 7.34625 24.3125 6.6875 C25.4375 4.625 25.4375 4.625 27.4375 3.625 C31.4505324 3.08992901 32.97678033 3.29448372 36.3125 5.6875 C38.4375 8.625 38.4375 8.625 39 12.1875 C38.36231456 16.08446655 37.58082382 17.31373249 34.4375 19.625 C33.7775 19.625 33.1175 19.625 32.4375 19.625 C32.16101286 22.0412572 31.91571663 24.45411377 31.6875 26.875 C31.60628906 27.55691406 31.52507812 28.23882812 31.44140625 28.94140625 C31.13121026 32.491427 31.04886971 34.15438685 33.36328125 36.95703125 C34.39001953 37.78267578 34.39001953 37.78267578 35.4375 38.625 C36.375 41.0625 36.375 41.0625 36.4375 43.625 C34.81594371 47.11134601 33.67296708 48.46802194 30.4375 50.625 C27.09813726 50.44610557 24.46145468 50.23937281 21.5625 48.5 C19.76582657 45.50554428 19.49733814 43.09561229 19.4375 39.625 C21.1875 36.6875 21.1875 36.6875 23.4375 34.625 C24.4275 34.625 25.4175 34.625 26.4375 34.625 C26.7675 29.345 27.0975 24.065 27.4375 18.625 C26.1175 17.965 24.7975 17.305 23.4375 16.625 C23.1075 15.635 22.7775 14.645 22.4375 13.625 C20.0212428 13.34851286 17.60838623 13.10321663 15.1875 12.875 C14.16462891 12.75318359 14.16462891 12.75318359 13.12109375 12.62890625 C10.83524713 12.38405891 10.83524713 12.38405891 7.4375 12.625 C5.15679433 14.49361549 5.15679433 14.49361549 3.4375 16.625 C-0.19269782 17.07877473 -2.58567947 17.06199866 -5.9375 15.5625 C-8.43240359 12.58780725 -8.62771697 10.47280142 -8.5625 6.625 C-6.11679293 2.42144097 -4.84581842 0.85014358 0 0 Z " fill="#1F3061" transform="translate(77.5625,86.375)"/>
<path d="M0 0 C2.375 1.0625 2.375 1.0625 4 3 C4.94224366 6.63436839 5.51647827 8.92636195 3.859375 12.37109375 C2.70678176 15.03022234 2.70678176 15.03022234 3.8984375 17.82421875 C4.38570312 18.76910156 4.87296875 19.71398437 5.375 20.6875 C8 25.87433155 8 25.87433155 8 28 C9.11375 28.103125 10.2275 28.20625 11.375 28.3125 C13.169375 28.6528125 13.169375 28.6528125 15 29 C17.44729273 32.6709391 17.82221316 35.73476922 17 40 C14.9375 42.5625 14.9375 42.5625 12 44 C8.3595767 43.81170224 5.44767107 43.14922369 2 42 C-0.49323102 42.98072151 -0.49323102 42.98072151 -3.0625 44.4375 C-7.81743869 47 -7.81743869 47 -10 47 C-10.0928125 48.36125 -10.0928125 48.36125 -10.1875 49.75 C-11 53 -11 53 -13.125 55.4375 C-16 57 -16 57 -19.5625 57.0625 C-23 56 -23 56 -25.5 53.875 C-27.47798094 50.08386986 -27.13111674 48.07202027 -26 44 C-24.9375 42.0625 -24.9375 42.0625 -23 41 C-16.27780051 40.57319368 -16.27780051 40.57319368 -13.09375 41.63671875 C-8.39346045 42.45225406 -3.83264716 39.48203889 0 37 C2.29671402 34.45001426 3.07491549 32.43458696 3 29 C1.98130674 25.92313055 0.71787377 23.1822398 -0.80078125 20.3203125 C-2 18 -2 18 -2 16 C-2.928125 15.896875 -3.85625 15.79375 -4.8125 15.6875 C-9.20472441 14.74015748 -9.20472441 14.74015748 -11 12 C-12.11278259 8.34371434 -12.31948363 6.68460779 -10.6875 3.1875 C-7.65244276 -0.74683346 -4.77406587 -0.32924592 0 0 Z " fill="#1F3061" transform="translate(60,80)"/>
<path d="M0 0 C2.3125 1.625 2.3125 1.625 4 4 C4.5625 7.4375 4.5625 7.4375 4 11 C1.55401113 14.38121991 0.10703441 15.76936783 -4 16.625 C-8.10703441 15.76936783 -9.55401113 14.38121991 -12 11 C-12.5625 7.4375 -12.5625 7.4375 -12 4 C-8.59412268 -0.46287373 -5.37009684 -1.70271363 0 0 Z " fill="#1F3061" transform="translate(35,62)"/>
<path d="M0 0 C3.00342896 2.05497771 3.83287356 3.47633714 4.9375 6.9375 C5.01221891 10.59872681 4.21363944 12.1304674 2 15 C-1.05693322 16.52846661 -3.62984547 16.23242445 -7 16 C-9.375 14.9375 -9.375 14.9375 -11 13 C-12.10373378 9.02655839 -12.41543583 6.91000228 -10.6875 3.125 C-7.63346061 -0.72082738 -4.73012808 -0.40776966 0 0 Z " fill="#1F3061" transform="translate(95,104)"/>
<path d="M0 0 C4.10703441 0.85563217 5.55401113 2.24378009 8 5.625 C8.62491523 9.58279649 8.61006839 11.63363886 6.5 15.0625 C2.97873756 17.26328902 0.04560357 17.42914661 -4 16.625 C-6.5 15.0625 -6.5 15.0625 -8 12.625 C-8.5625 9.1875 -8.5625 9.1875 -8 5.625 C-5.55401113 2.24378009 -4.10703441 0.85563217 0 0 Z " fill="#1F3061" transform="translate(49,99.375)"/>
<path d="M0 0 C2.375 1.125 2.375 1.125 4 3 C5.17407634 6.60050078 5.32759676 8.27928713 3.75 11.75 C2 14 2 14 -1 16 C-4.33936274 15.82110557 -6.97604532 15.61437281 -9.875 13.875 C-11.69441423 10.84264294 -12 8.52133145 -12 5 C-8.64275682 0.06904909 -5.83060884 -0.84808856 0 0 Z " fill="#1F3061" transform="translate(59,27)"/>
<path d="M0 0 C2.80819452 2.58649496 3.84616954 4.26161378 4.625 8 C3.90391211 11.46122187 2.63992305 13.05420345 -0.2109375 15.1484375 C-3.41545328 16.67373104 -5.72950713 16.04902601 -9 15 C-11.83333391 12.62365543 -11.97885738 11.19733117 -12.375 7.5 C-11.98618578 3.87106728 -11.59227603 2.4962658 -9 0 C-5.39297148 -1.20234284 -3.64185324 -1.0405295 0 0 Z " fill="#1F3061" transform="translate(102,31)"/>
<path d="M0 0 C3.32274404 2.45594125 4.77618008 3.9256644 5.625 8 C4.76936783 12.10703441 3.38121991 13.55401113 0 16 C-3.95779649 16.62491523 -6.00863886 16.61006839 -9.4375 14.5 C-11.33241448 11.46813683 -11.64036692 9.43919544 -11.44921875 5.90625 C-11 4 -11 4 -8.875 1.5 C-5.46714413 -0.27801176 -3.78454468 -0.70960213 0 0 Z " fill="#1F3061" transform="translate(119,69)"/>
</svg>
