<?xml version="1.0" standalone="no"?>
<!DOCTYPE svg PUBLIC "-//W3C//DTD SVG 20010904//EN"
 "http://www.w3.org/TR/2001/REC-SVG-20010904/DTD/svg10.dtd">
<svg version="1.0" xmlns="http://www.w3.org/2000/svg"
 width="786.000000pt" height="152.000000pt" viewBox="0 0 786.000000 152.000000"
 preserveAspectRatio="xMidYMid meet">
<metadata>
Created by potrace 1.16, written by Peter Selinger 2001-2019
</metadata>
<g transform="translate(0.000000,152.000000) scale(0.100000,-0.100000)"
fill="#000000" stroke="none">
<path d="M390 1400 c-29 -29 -34 -63 -16 -99 9 -17 21 -31 26 -31 11 0 13 -81
4 -129 -4 -17 -12 -31 -20 -31 -20 0 -44 -41 -44 -78 0 -40 38 -82 74 -82 13
0 39 12 56 26 28 24 37 26 95 22 58 -5 67 -9 99 -43 31 -33 40 -37 68 -31 47
9 70 36 70 81 0 44 -23 72 -68 81 -24 4 -37 0 -63 -21 -30 -26 -37 -27 -97
-22 -59 4 -69 8 -94 38 -31 36 -34 56 -24 132 5 33 12 48 25 52 26 9 52 62 45
91 -10 39 -42 64 -81 64 -22 0 -43 -8 -55 -20z"/>
<path d="M1030 1400 c-11 -11 -23 -33 -26 -48 -8 -36 -120 -90 -152 -73 -48
25 -102 9 -121 -37 -21 -49 16 -111 65 -112 17 0 28 -15 51 -67 27 -60 29 -70
17 -88 -54 -77 60 -170 124 -102 44 47 14 137 -45 137 -15 0 -28 17 -51 67
-29 61 -30 68 -16 94 8 15 14 34 14 41 0 8 29 26 64 42 51 22 69 25 85 17 49
-27 102 -7 122 45 27 72 -77 138 -131 84z"/>
<path d="M525 1225 c-52 -51 -11 -135 65 -135 10 0 31 11 46 24 37 31 39 90 5
117 -33 27 -86 25 -116 -6z"/>
<path d="M973 1210 c-43 -18 -58 -90 -25 -128 29 -35 74 -37 111 -7 41 35 42
76 2 116 -30 30 -50 34 -88 19z"/>
<path d="M4440 830 l0 -260 40 0 40 0 0 131 0 131 29 29 c36 36 90 40 121 9
18 -18 20 -33 20 -160 l0 -140 41 0 42 0 -5 143 c-5 153 -13 186 -59 220 -39
28 -120 28 -159 -1 l-30 -23 0 91 0 90 -40 0 -40 0 0 -260z"/>
<path d="M6680 830 l0 -260 40 0 40 0 0 260 0 260 -40 0 -40 0 0 -260z"/>
<path d="M6870 830 l0 -260 40 0 40 0 0 260 0 260 -40 0 -40 0 0 -260z"/>
<path d="M7480 830 l0 -260 35 0 c25 0 35 4 35 16 0 13 5 12 26 -5 20 -16 41
-21 87 -21 55 0 62 2 97 38 104 104 67 318 -61 352 -45 12 -100 1 -130 -26
-18 -17 -19 -15 -19 74 l0 92 -35 0 -35 0 0 -260z m228 37 c54 -57 43 -204
-18 -237 -50 -27 -108 -2 -130 56 -24 61 -3 170 37 193 32 19 88 13 111 -12z"/>
<path d="M5927 1067 c-93 -29 -147 -108 -155 -224 -8 -129 35 -221 124 -262
40 -19 61 -22 128 -19 52 2 95 10 119 22 33 16 37 22 37 57 0 45 -2 46 -38 20
-68 -47 -165 -51 -224 -10 -41 29 -68 92 -68 158 0 75 17 124 57 163 33 32 38
33 111 33 68 0 82 -3 117 -28 l40 -27 3 35 c4 47 -9 62 -71 80 -59 18 -127 18
-180 2z"/>
<path d="M1720 820 l0 -250 35 0 35 0 0 100 0 100 58 0 c71 0 91 -18 146 -127
36 -72 37 -73 76 -73 22 0 40 2 40 5 0 17 -86 174 -108 197 l-25 28 26 20 c51
40 58 141 14 196 -33 42 -75 54 -192 54 l-105 0 0 -250z m190 177 c63 -22 75
-96 23 -137 -19 -15 -41 -20 -84 -20 l-59 0 0 85 0 85 43 -1 c23 0 58 -5 77
-12z"/>
<path d="M1090 1015 c-19 -20 -22 -31 -17 -69 6 -40 3 -49 -34 -100 -35 -49
-44 -56 -74 -56 -37 0 -75 -37 -75 -72 0 -69 75 -110 128 -71 23 18 27 28 28
75 0 47 5 62 38 107 29 39 44 51 64 51 15 0 33 4 41 9 11 7 32 -2 73 -31 47
-33 58 -46 58 -69 0 -66 76 -104 133 -66 72 47 9 171 -72 140 -27 -10 -35 -7
-90 31 -53 36 -60 45 -61 74 0 69 -90 100 -140 47z"/>
<path d="M2287 948 c-97 -26 -150 -149 -117 -268 11 -41 61 -94 103 -109 37
-14 140 -14 188 1 35 10 39 14 39 45 0 18 -2 33 -4 33 -2 0 -23 -7 -46 -15
-23 -8 -64 -15 -91 -15 -39 0 -55 5 -79 28 -17 15 -34 42 -39 60 l-10 32 140
0 139 0 0 45 c0 85 -41 144 -115 164 -46 13 -57 13 -108 -1z m114 -71 c20 -15
39 -51 39 -71 0 -14 -16 -16 -100 -16 -95 0 -100 1 -100 21 0 11 13 34 29 50
24 23 38 29 73 29 24 0 50 -6 59 -13z"/>
<path d="M2680 951 c-69 -14 -100 -50 -100 -116 0 -54 33 -82 123 -107 63 -17
81 -26 90 -46 10 -21 8 -27 -12 -43 -29 -23 -106 -25 -158 -4 -47 20 -45 21
-41 -22 4 -45 18 -51 126 -52 79 -1 120 13 146 51 29 41 16 121 -24 146 -11 6
-52 21 -91 32 -40 11 -76 25 -81 32 -14 23 -9 47 13 59 23 12 130 8 162 -6 14
-6 17 -2 17 28 0 31 -4 36 -27 41 -61 11 -110 14 -143 7z"/>
<path d="M3071 950 c-73 -18 -126 -82 -136 -164 -12 -95 30 -182 102 -212 38
-17 143 -18 196 -3 34 9 37 13 37 44 0 41 3 39 -43 20 -41 -17 -114 -20 -151
-5 -28 10 -66 64 -66 93 0 15 13 17 140 17 l140 0 0 26 c0 59 -22 114 -61 149
-22 19 -45 35 -53 35 -7 0 -26 2 -42 4 -16 3 -44 1 -63 -4z m108 -77 c12 -10
25 -33 30 -50 l10 -33 -105 0 c-108 0 -114 2 -93 43 29 56 113 77 158 40z"/>
<path d="M3470 953 c-75 -13 -90 -23 -90 -58 l0 -34 35 15 c41 17 114 18 149
3 14 -7 29 -25 35 -40 l10 -29 -72 0 c-98 0 -156 -28 -175 -84 -16 -51 -6
-104 29 -138 24 -25 35 -28 92 -28 56 0 70 4 96 26 30 25 31 25 31 5 0 -17 6
-21 36 -21 l36 0 -4 143 c-4 155 -14 189 -67 220 -29 17 -102 28 -141 20z
m134 -235 c-14 -67 -48 -98 -107 -98 -50 0 -82 43 -66 88 11 30 41 41 117 41
l64 1 -8 -32z"/>
<path d="M3927 946 c-20 -8 -44 -19 -52 -26 -13 -10 -15 -9 -15 9 0 17 -6 21
-35 21 l-35 0 0 -190 0 -190 35 0 35 0 0 103 c0 122 11 169 48 198 21 16 36
20 70 16 42 -5 42 -4 42 28 0 47 -25 55 -93 31z"/>
<path d="M4187 950 c-85 -16 -137 -91 -137 -195 0 -74 26 -134 71 -166 26 -18
50 -25 104 -27 96 -5 125 7 125 52 l0 35 -35 -15 c-44 -18 -98 -18 -134 1 -30
15 -61 76 -61 120 0 40 30 102 57 120 25 17 100 17 151 0 20 -7 22 -4 22 23 0
20 -7 35 -17 40 -28 14 -104 21 -146 12z"/>
<path d="M4991 950 c-73 -18 -126 -82 -136 -164 -12 -95 30 -182 102 -212 38
-17 143 -18 196 -3 34 9 37 13 37 44 0 41 3 39 -43 20 -41 -17 -114 -20 -151
-5 -28 10 -66 64 -66 93 0 15 13 17 140 17 l140 0 0 26 c0 59 -22 114 -61 149
-22 19 -45 35 -53 35 -7 0 -26 2 -42 4 -16 3 -44 1 -63 -4z m108 -77 c12 -10
25 -33 30 -50 l10 -33 -105 0 c-108 0 -114 2 -93 43 29 56 113 77 158 40z"/>
<path d="M5442 950 c-18 -4 -42 -16 -52 -25 -19 -17 -20 -17 -20 3 0 19 -6 22
-40 22 l-40 0 0 -190 0 -190 39 0 39 0 4 136 3 136 29 25 c25 21 37 24 73 20
43 -5 43 -4 43 28 0 21 -6 35 -16 39 -18 7 -17 7 -62 -4z"/>
<path d="M6358 948 c-77 -20 -125 -112 -115 -220 10 -111 68 -168 172 -168 77
0 120 25 153 90 25 50 30 134 11 191 -17 51 -65 96 -115 108 -49 13 -55 13
-106 -1z m117 -82 c46 -46 54 -130 19 -198 -34 -67 -124 -65 -160 3 -32 62
-13 181 33 208 32 19 82 13 108 -13z"/>
<path d="M7130 947 c-54 -12 -55 -13 -58 -49 l-3 -37 35 14 c19 8 58 15 86 15
41 0 56 -5 75 -25 43 -42 34 -55 -37 -55 -131 0 -188 -40 -188 -132 0 -44 4
-54 34 -84 31 -31 39 -34 93 -34 40 0 68 6 91 20 26 16 32 17 32 5 0 -10 11
-15 35 -15 l35 0 0 138 c0 111 -3 144 -18 172 -31 63 -111 88 -212 67z m157
-234 c-8 -51 -55 -93 -102 -93 -41 0 -75 29 -75 63 0 47 34 66 119 67 l64 0
-6 -37z"/>
<path d="M503 925 c-26 -18 -38 -67 -23 -94 9 -18 4 -30 -31 -80 -38 -54 -45
-59 -87 -64 -41 -4 -52 -1 -103 33 -48 33 -56 43 -52 64 6 30 -43 86 -76 86
-79 0 -118 -94 -60 -146 14 -13 30 -15 66 -11 44 5 53 2 106 -36 34 -24 56
-46 53 -53 -8 -20 14 -73 34 -84 73 -39 163 43 121 109 -6 10 4 32 33 72 35
50 46 59 72 59 50 0 79 30 79 80 0 32 -6 47 -24 61 -28 23 -79 25 -108 4z"/>
<path d="M311 899 c-81 -32 -58 -159 29 -159 82 0 112 118 39 155 -32 17 -35
17 -68 4z"/>
<path d="M1136 809 c-20 -16 -26 -29 -26 -58 0 -74 83 -109 135 -56 73 72 -28
178 -109 114z"/>
<path d="M552 713 c-21 -8 -43 -61 -36 -88 7 -29 48 -65 74 -65 11 0 27 -23
48 -67 28 -60 29 -68 16 -87 -8 -11 -14 -29 -14 -39 0 -27 -121 -82 -149 -68
-31 17 -86 13 -104 -7 -9 -10 -20 -32 -23 -50 -5 -26 -1 -36 24 -62 17 -17 41
-30 55 -30 33 0 74 34 82 68 4 22 19 35 68 59 57 28 65 29 88 17 34 -19 62
-17 93 7 50 39 23 139 -38 139 -18 0 -29 13 -54 67 -29 62 -30 68 -16 95 19
37 10 82 -19 103 -21 15 -69 19 -95 8z"/>
<path d="M745 618 c-21 -25 -25 -38 -21 -62 13 -65 95 -90 139 -42 21 22 27
23 87 17 56 -6 70 -12 98 -40 33 -34 33 -34 27 -106 -6 -59 -10 -73 -28 -81
-30 -13 -51 -55 -44 -86 20 -79 120 -89 155 -16 14 30 3 73 -27 98 -15 13 -17
25 -12 81 6 59 10 69 39 94 25 21 32 35 32 61 0 74 -84 111 -136 59 -23 -23
-29 -25 -95 -19 -52 5 -72 11 -79 25 -32 59 -93 67 -135 17z"/>
<path d="M465 495 c-31 -30 -33 -82 -5 -113 29 -31 89 -30 118 1 47 50 10 137
-58 137 -19 0 -40 -9 -55 -25z"/>
<path d="M889 461 c-33 -27 -33 -95 0 -122 42 -35 103 -24 127 23 12 24 13 36
4 64 -6 19 -20 39 -30 44 -30 16 -76 12 -101 -9z"/>
</g>
</svg>
