<?xml version="1.0" encoding="UTF-8"?>
<svg version="1.1" xmlns="http://www.w3.org/2000/svg" width="786" height="152">
<path d="M0 0 C24.73529412 0 24.73529412 0 30.3125 5.125 C32.90888438 9.54846969 33.68701305 14.02106635 32.5234375 19.06640625 C31.4476571 21.8977184 30.56123028 23.68359476 27.88671875 25.19140625 C27.26410156 25.45824219 26.64148438 25.72507812 26 26 C26.52787109 26.62261719 26.52787109 26.62261719 27.06640625 27.2578125 C30.62212998 31.69550426 33.34547943 36.30555198 35.875 41.375 C36.1851001 41.99391113 36.4952002 42.61282227 36.81469727 43.25048828 C39 47.72964957 39 47.72964957 39 50 C36.36 50 33.72 50 31 50 C30.07767578 48.31970703 30.07767578 48.31970703 29.13671875 46.60546875 C28.32057898 45.1326648 27.50415799 43.66001666 26.6875 42.1875 C26.28337891 41.44951172 25.87925781 40.71152344 25.46289062 39.95117188 C25.06650391 39.23896484 24.67011719 38.52675781 24.26171875 37.79296875 C23.90037842 37.1383667 23.53903809 36.48376465 23.16674805 35.80932617 C21.93475671 33.89882444 20.74079793 32.46279978 19 31 C16.03756274 30.42052719 16.03756274 30.42052719 12.8125 30.3125 C10.894375 30.209375 8.97625 30.10625 7 30 C7 36.6 7 43.2 7 50 C4.69 50 2.38 50 0 50 C0 33.5 0 17 0 0 Z M7 6 C7 11.61 7 17.22 7 23 C14.87682353 23.59157586 14.87682353 23.59157586 22.1875 21.375 C24.43404479 18.43125165 25 16.70430594 25 13 C23.67409573 9.56824776 22.67312783 8.33656391 19.375 6.6875 C15.13444609 5.82368346 11.32495374 5.8689408 7 6 Z " fill="#1F3061" transform="translate(172,45)"/>
<path d="M0 0 C2.31 0 4.62 0 7 0 C7.33 5.61 7.66 11.22 8 17 C9.32 16.01 10.64 15.02 12 14 C18.0180387 12.61881079 21.50259518 12.7845368 27 16 C32.34410766 21.34410766 34.06675337 25.95140396 34.3125 33.375 C34.14495648 40.2349764 32.88789921 45.45098473 28.0625 50.5 C23.93566376 53.7362156 19.85030255 53.60173882 14.76953125 53.50390625 C11.73377447 52.95156122 10.27535874 52.03641892 8 50 C7.67 50.66 7.34 51.32 7 52 C4.69 52 2.38 52 0 52 C0 34.84 0 17.68 0 0 Z M8 25 C6.2902075 30.12937749 5.93685055 36.10783042 7.82421875 41.2421875 C9.24292512 43.78425616 10.35065113 45.67532557 13 47 C17.16984624 47.47205806 19.27830125 47.4811325 22.8125 45.125 C25.77305456 40.89563634 26.83968551 37.15296575 27 32 C26.16523764 27.27451914 24.8813209 23.04362574 21 20 C14.66194926 19.182187 12.06693928 19.70065488 8 25 Z " fill="#1F3061" transform="translate(748,43)"/>
<path d="M0 0 C2.64 0 5.28 0 8 0 C8.33 5.61 8.66 11.22 9 17 C10.32 16.01 11.64 15.02 13 14 C18.25296493 12.7115369 21.97343679 13.00834288 27 15 C31.04089641 17.73033542 31.65762749 20.76482785 32.60522461 25.29223633 C33.34525327 30.36809151 33.205206 35.44474023 33.125 40.5625 C33.11597656 41.66658203 33.10695313 42.77066406 33.09765625 43.90820312 C33.07430128 46.6057017 33.04155054 49.30273077 33 52 C30.36 52 27.72 52 25 52 C24.98541748 51.16750732 24.97083496 50.33501465 24.95581055 49.47729492 C24.8947137 46.38510347 24.82055444 43.29357918 24.73754883 40.2019043 C24.68798681 38.2070937 24.65348867 36.21192743 24.61914062 34.21679688 C24.58369141 32.96318359 24.54824219 31.70957031 24.51171875 30.41796875 C24.48553467 29.26063232 24.45935059 28.1032959 24.43237305 26.91088867 C24.22694576 24.02315021 24.22694576 24.02315021 22.67895508 22.13012695 C19.74571961 20.15572722 17.4103998 20.52960003 14 21 C11.38919784 22.65795465 10.42398533 23.35478666 9 26 C8.23414575 30.43177363 8.20923569 34.82287328 8.1875 39.3125 C8.16236328 40.53001953 8.13722656 41.74753906 8.11132812 43.00195312 C8.05251099 46.00162687 8.01618961 48.99984298 8 52 C5.36 52 2.72 52 0 52 C0 34.84 0 17.68 0 0 Z " fill="#1E3062" transform="translate(444,43)"/>
<path d="M0 0 C2.375 1.0625 2.375 1.0625 4 3 C5.10373378 6.97344161 5.41543583 9.08999772 3.6875 12.875 C2 15 2 15 0 16 C-2.3329866 16.04022391 -4.66706666 16.04320247 -7 16 C-7.27457031 16.57492188 -7.54914062 17.14984375 -7.83203125 17.7421875 C-9.36645435 20.70839671 -11.21734322 23.42307579 -13.07421875 26.1953125 C-13.37972656 26.79085937 -13.68523438 27.38640625 -14 28 C-13.505 28.99 -13.505 28.99 -13 30 C-12.46492901 34.0130324 -12.66948372 35.53928033 -15.0625 38.875 C-18 41 -18 41 -21.5625 41.5625 C-25 41 -25 41 -27.375 39.4375 C-29 37 -29 37 -29.125 33.6875 C-30.33261906 28.59824826 -32.80529394 27.08111501 -37.08984375 24.30078125 C-41.09393716 22.51103211 -44.34618381 22.57598557 -48.65234375 23.046875 C-51 23 -51 23 -52.765625 21.73046875 C-54.74677933 18.953091 -54.82371454 16.34942381 -55 13 C-54.21270916 10.35183989 -53.47719891 9.37115471 -51.3125 7.6875 C-47.84734082 6.65731754 -45.47182124 7.07004788 -42 8 C-39.5625 10.25 -39.5625 10.25 -38 13 C-38.05800781 13.80179688 -38.11601563 14.60359375 -38.17578125 15.4296875 C-38.25476511 18.13798134 -38.25476511 18.13798134 -36.1640625 20.0546875 C-31.851851 23.14621144 -28.25219441 25.58756772 -22.8125 25.5625 C-18.4651055 24.75080293 -16.50262257 22.88555393 -13.8125 19.4375 C-10.65678608 14.31221056 -10.83295306 11.7379808 -12 6 C-9.26428223 -0.12279692 -6.47692895 -0.44668476 0 0 Z " fill="#1F3061" transform="translate(59,58)"/>
<path d="M0 0 C3.00342896 2.05497771 3.83287356 3.47633714 4.9375 6.9375 C5.01303309 10.63862122 4.34853162 12.16556528 2 15 C-0.11328125 15.63671875 -0.11328125 15.63671875 -2 16 C-2.10854617 18.39706123 -2.18753157 20.78915838 -2.25 23.1875 C-2.28351562 23.86103516 -2.31703125 24.53457031 -2.3515625 25.22851562 C-2.42136101 28.80568905 -2.09599134 30.8409347 -0.234375 33.92578125 C3.98400801 37.84179765 8.84938672 37.31935593 14.38671875 37.3046875 C17.84992413 36.90090571 19.40673255 35.23309142 22 33 C25.5241557 33.06076131 27.91616966 33.27744644 30.875 35.25 C32.36553394 37.56860835 32.80321917 39.24506837 33 42 C32.20817165 45.32567907 31.38570366 46.67858028 28.75 48.875 C25.2492971 50.30710573 23.57255612 50.21618932 20 49 C18.61767557 47.37373596 17.28062485 45.7074998 16 44 C11.28523846 42.31097554 5.91766931 42.42663945 1 43 C-0.7074998 44.28062485 -2.38263741 45.6072711 -4 47 C-7.77910616 47 -10.00693033 46.83289714 -12.9375 44.375 C-14.422273 41.05609564 -14.38534485 38.59655194 -14 35 C-12.6875 32.5625 -12.6875 32.5625 -11 31 C-10.01 31 -9.02 31 -8 31 C-7.67 25.72 -7.34 20.44 -7 15 C-7.99 14.67 -8.98 14.34 -10 14 C-11.85156705 11.50038448 -12.00549601 10.13190426 -11.875 7 C-9.98007966 0.50313027 -6.56213555 -0.93744794 0 0 Z " fill="#1F3061" transform="translate(48,10)"/>
<path d="M0 0 C2.5 1.5625 2.5 1.5625 4 4 C4.25 7.75 4.25 7.75 4 11 C4.680625 11.226875 5.36125 11.45375 6.0625 11.6875 C8.66878737 12.85201138 10.15816754 13.90869338 12.3125 15.6875 C14.39808014 17.25963666 15.41389123 18.01116398 18.05078125 17.9609375 C18.73527344 17.82945313 19.41976562 17.69796875 20.125 17.5625 C24 17 24 17 26.9375 18.625 C29.23807894 21.27415151 29.91493434 22.51230789 30 26 C29.21133286 29.68044663 28.35388568 30.75067145 25.25 32.9375 C22 34 22 34 18.8125 33.4375 C15.77443152 31.88470944 14.5812709 30.99609223 13 28 C12.91363281 27.04738281 12.82726562 26.09476563 12.73828125 25.11328125 C11.78338678 21.08655696 10.42119388 20.17553099 7 17.9375 C3.14176919 15.6906185 0.60338248 14.36405749 -3.8125 15.5 C-8.89904666 17.90604635 -11.96351054 21.81331591 -14 27 C-14.18619747 29.6533139 -14.07125159 32.16843529 -13.91015625 34.8203125 C-14 37 -14 37 -16 39.6875 C-19.96510535 41.42223359 -22.92923915 41.50345595 -27 40 C-29.0625 37.875 -29.0625 37.875 -30 35 C-29.88200002 31.57800046 -29.64983667 29.08306112 -27.875 26.125 C-26 25 -26 25 -22.75 24.9375 C-17.62019428 23.65504857 -16.10622012 21.17195337 -13.296875 16.83984375 C-11.57959344 13.07941093 -11.70156908 10.19282371 -11.98828125 6.140625 C-12 4 -12 4 -10.5 1.375 C-6.94819263 -0.57849405 -3.96174494 -0.78747799 0 0 Z " fill="#1F3061" transform="translate(119,48)"/>
<path d="M0 0 C2.68601216 1.90848233 3.7337462 3.32549038 4.9375 6.375 C5.0221688 9.93108969 3.83947665 12.00233435 2 15 C-1.54564069 16.77282034 -5.64997308 16.42632429 -9.375 15.25 C-13.13860888 14.89156106 -15.67979069 16.43787942 -19.01171875 18.08984375 C-21 19 -21 19 -23 19 C-23.144375 19.928125 -23.28875 20.85625 -23.4375 21.8125 C-24 25 -24 25 -25 28 C-24.01751044 30.71779992 -24.01751044 30.71779992 -22.5625 33.5625 C-20 38.82016349 -20 38.82016349 -20 41 C-19.2575 40.9175 -18.515 40.835 -17.75 40.75 C-15 41 -15 41 -12.6875 42.5 C-10.62980317 45.54843975 -10.4119205 47.47707701 -10.62109375 51.09375 C-11 53 -11 53 -12.5625 55.5 C-15.99136114 57.61006839 -18.04220351 57.62491523 -22 57 C-24.9375 54.875 -24.9375 54.875 -27 52 C-27.45819887 48.79260791 -27.59541635 46.92774176 -25.82421875 44.16796875 C-24.70899354 41.91990975 -24.70899354 41.91990975 -25.8984375 39.2734375 C-26.38570312 38.31695312 -26.87296875 37.36046875 -27.375 36.375 C-30 31.13903743 -30 31.13903743 -30 29 C-31.11375 29.12375 -31.11375 29.12375 -32.25 29.25 C-35 29 -35 29 -37.25 27.375 C-39.4094567 24.44430877 -39.92579943 22.63582815 -40 19 C-37.86956522 14.43478261 -37.86956522 14.43478261 -35 13 C-28.76470588 12.76470588 -28.76470588 12.76470588 -25.5625 13.75 C-21.99785965 14.09776979 -19.91410114 12.65887128 -16.8671875 10.91015625 C-15 10 -15 10 -12 10 C-11.9175 9.0925 -11.835 8.185 -11.75 7.25 C-10.19917288 0.52974917 -6.63337192 -0.94762456 0 0 Z " fill="#1F3061" transform="translate(112,10)"/>
<path d="M0 0 C3.88861572 0.70702104 5.07220046 1.53191599 7.4375 4.625 C7.7675 5.285 8.0975 5.945 8.4375 6.625 C10.97774004 7.10074438 13.43801464 7.46507547 16 7.75 C16.71091797 7.83636719 17.42183594 7.92273438 18.15429688 8.01171875 C19.91439312 8.22434783 21.67584164 8.42572697 23.4375 8.625 C23.72625 7.985625 24.015 7.34625 24.3125 6.6875 C25.4375 4.625 25.4375 4.625 27.4375 3.625 C31.4505324 3.08992901 32.97678033 3.29448372 36.3125 5.6875 C38.4375 8.625 38.4375 8.625 39 12.1875 C38.36231456 16.08446655 37.58082382 17.31373249 34.4375 19.625 C33.7775 19.625 33.1175 19.625 32.4375 19.625 C32.16101286 22.0412572 31.91571663 24.45411377 31.6875 26.875 C31.60628906 27.55691406 31.52507812 28.23882812 31.44140625 28.94140625 C31.13121026 32.491427 31.04886971 34.15438685 33.36328125 36.95703125 C34.39001953 37.78267578 34.39001953 37.78267578 35.4375 38.625 C36.375 41.0625 36.375 41.0625 36.4375 43.625 C34.81594371 47.11134601 33.67296708 48.46802194 30.4375 50.625 C27.09813726 50.44610557 24.46145468 50.23937281 21.5625 48.5 C19.76582657 45.50554428 19.49733814 43.09561229 19.4375 39.625 C21.1875 36.6875 21.1875 36.6875 23.4375 34.625 C24.4275 34.625 25.4175 34.625 26.4375 34.625 C26.7675 29.345 27.0975 24.065 27.4375 18.625 C26.1175 17.965 24.7975 17.305 23.4375 16.625 C23.1075 15.635 22.7775 14.645 22.4375 13.625 C20.0212428 13.34851286 17.60838623 13.10321663 15.1875 12.875 C14.16462891 12.75318359 14.16462891 12.75318359 13.12109375 12.62890625 C10.83524713 12.38405891 10.83524713 12.38405891 7.4375 12.625 C5.15679433 14.49361549 5.15679433 14.49361549 3.4375 16.625 C-0.19269782 17.07877473 -2.58567947 17.06199866 -5.9375 15.5625 C-8.43240359 12.58780725 -8.62771697 10.47280142 -8.5625 6.625 C-6.11679293 2.42144097 -4.84581842 0.85014358 0 0 Z " fill="#1F3061" transform="translate(80.5625,86.375)"/>
<path d="M0 0 C2.375 1.0625 2.375 1.0625 4 3 C4.94224366 6.63436839 5.51647827 8.92636195 3.859375 12.37109375 C2.70678176 15.03022234 2.70678176 15.03022234 3.8984375 17.82421875 C4.38570312 18.76910156 4.87296875 19.71398437 5.375 20.6875 C8 25.87433155 8 25.87433155 8 28 C9.11375 28.103125 10.2275 28.20625 11.375 28.3125 C13.169375 28.6528125 13.169375 28.6528125 15 29 C17.44729273 32.6709391 17.82221316 35.73476922 17 40 C14.9375 42.5625 14.9375 42.5625 12 44 C8.3595767 43.81170224 5.44767107 43.14922369 2 42 C-0.49323102 42.98072151 -0.49323102 42.98072151 -3.0625 44.4375 C-7.81743869 47 -7.81743869 47 -10 47 C-10.0928125 48.36125 -10.0928125 48.36125 -10.1875 49.75 C-11 53 -11 53 -13.125 55.4375 C-16 57 -16 57 -19.5625 57.0625 C-23 56 -23 56 -25.5 53.875 C-27.47798094 50.08386986 -27.13111674 48.07202027 -26 44 C-24.9375 42.0625 -24.9375 42.0625 -23 41 C-16.27780051 40.57319368 -16.27780051 40.57319368 -13.09375 41.63671875 C-8.39346045 42.45225406 -3.83264716 39.48203889 0 37 C2.29671402 34.45001426 3.07491549 32.43458696 3 29 C1.98130674 25.92313055 0.71787377 23.1822398 -0.80078125 20.3203125 C-2 18 -2 18 -2 16 C-2.928125 15.896875 -3.85625 15.79375 -4.8125 15.6875 C-9.20472441 14.74015748 -9.20472441 14.74015748 -11 12 C-12.11278259 8.34371434 -12.31948363 6.68460779 -10.6875 3.1875 C-7.65244276 -0.74683346 -4.77406587 -0.32924592 0 0 Z " fill="#1F3061" transform="translate(63,80)"/>
<path d="M0 0 C2 2 2 2 2.1953125 3.9453125 C2.13020833 5.96354167 2.06510417 7.98177083 2 10 C1.12601563 9.45859375 1.12601563 9.45859375 0.234375 8.90625 C-6.42853958 5.13478892 -12.35912 3.70310382 -20 5 C-24.31398317 7.27342011 -27.25390696 9.09209417 -29.05859375 13.70703125 C-30.98762679 20.45464474 -31.28579009 28.17095808 -28.25 34.625 C-26.17332274 38.09831585 -24.05423793 40.19297796 -20.25 41.6875 C-13.42160384 42.63588835 -9.12505475 42.00688544 -2.98046875 38.97265625 C-1 38 -1 38 2 37 C2 39.64 2 42.28 2 45 C-5.85243848 49.88596172 -14.08282219 49.89078987 -23 49 C-28.99782752 47.55691368 -32.22937964 44.08571636 -35.7734375 39.1953125 C-40.21186548 31.25137452 -40.21353794 21.80654861 -38.3828125 13.046875 C-36.20068727 6.75154028 -32.5659574 2.61576399 -27 -1 C-18.4893866 -4.69328506 -8.30961997 -3.98131242 0 0 Z " fill="#1E2F61" transform="translate(616,47)"/>
<path d="M0 0 C3.91719627 3.32368169 5.27771851 6.78389554 6.0625 11.75 C6.14119838 13.73438396 6.17034044 15.72111348 6.16015625 17.70703125 C6.15693359 18.81884766 6.15371094 19.93066406 6.15039062 21.07617188 C6.13782227 22.8019043 6.13782227 22.8019043 6.125 24.5625 C6.12048828 25.73232422 6.11597656 26.90214844 6.11132812 28.10742188 C6.0995693 30.98833358 6.08313426 33.86914044 6.0625 36.75 C3.7525 36.75 1.4425 36.75 -0.9375 36.75 C-1.2675 35.76 -1.5975 34.77 -1.9375 33.75 C-2.97390625 34.72453125 -2.97390625 34.72453125 -4.03125 35.71875 C-7.47581572 38.12624217 -9.28006341 38.28885455 -13.4375 38.25 C-14.5409375 38.2603125 -15.644375 38.270625 -16.78125 38.28125 C-20.57165353 37.64326129 -22.21903537 36.41974663 -24.9375 33.75 C-27.26444202 29.09611596 -27.51154951 24.67525169 -25.9375 19.75 C-23.00115495 15.99800355 -20.41487424 14.20687353 -15.9375 12.75 C-13.50757865 12.46664284 -11.0675498 12.26196541 -8.625 12.125 C-7.37074219 12.05023438 -6.11648438 11.97546875 -4.82421875 11.8984375 C-3.87160156 11.84945312 -2.91898437 11.80046875 -1.9375 11.75 C-2.2675 10.1 -2.5975 8.45 -2.9375 6.75 C-9.75815085 4.74863531 -17.40570479 4.92543991 -23.9375 7.75 C-23.9375 5.44 -23.9375 3.13 -23.9375 0.75 C-16.18690596 -2.66937972 -7.90753645 -3.36490913 0 0 Z M-18.9375 21.75 C-20.10416667 23.58333333 -20.10416667 23.58333333 -19.9375 25.75 C-18.78963059 27.99356294 -17.7279233 29.9595767 -15.9375 31.75 C-10.04219271 32.4017073 -10.04219271 32.4017073 -5.0625 29.5625 C-2.30907962 25.91826715 -0.9375 23.33576652 -0.9375 18.75 C-2.99933633 18.66849256 -5.06211349 18.6105806 -7.125 18.5625 C-8.27355469 18.52769531 -9.42210937 18.49289063 -10.60546875 18.45703125 C-14.24014993 18.77661049 -16.04520198 19.57681081 -18.9375 21.75 Z " fill="#1E2F60" transform="translate(361.9375,58.25)"/>
<path d="M0 0 C3.77769997 3.32797378 5.43892263 6.536028 5.96557617 11.56396484 C5.9420105 13.27640381 5.9420105 13.27640381 5.91796875 15.0234375 C5.9034668 16.88935547 5.9034668 16.88935547 5.88867188 18.79296875 C5.86353516 20.07816406 5.83839844 21.36335938 5.8125 22.6875 C5.79219727 24.65009766 5.79219727 24.65009766 5.77148438 26.65234375 C5.7362237 29.87281844 5.68693633 33.09244606 5.625 36.3125 C3.315 36.3125 1.005 36.3125 -1.375 36.3125 C-1.705 35.6525 -2.035 34.9925 -2.375 34.3125 C-3.07753906 34.7971875 -3.78007813 35.281875 -4.50390625 35.78125 C-9.28474234 38.33102925 -14.09391716 38.09752583 -19.375 37.3125 C-22.6012505 35.67511723 -24.73478168 33.59293664 -26.375 30.3125 C-26.98690752 25.452206 -27.36300488 20.84344221 -24.25 16.8125 C-19.22291122 12.44111846 -14.51262066 12.06462036 -8 12.1875 C-6.75476563 12.20554687 -5.50953125 12.22359375 -4.2265625 12.2421875 C-2.81503906 12.27699219 -2.81503906 12.27699219 -1.375 12.3125 C-3.06307908 8.08165097 -3.06307908 8.08165097 -6.375 5.3125 C-12.34032949 4.89336737 -17.80656539 4.90452828 -23.375 7.3125 C-23.375 5.0025 -23.375 2.6925 -23.375 0.3125 C-15.56219069 -3.13432764 -7.747839 -3.8739195 0 0 Z M-18.375 20.3125 C-19.5466367 23.68010187 -19.5466367 23.68010187 -19.375 27.3125 C-18.0219872 29.91564994 -18.0219872 29.91564994 -15.375 31.3125 C-10.88932719 32.06011213 -8.92713147 31.63968902 -5 29.3125 C-1.60289142 25.43009019 -1.54653301 23.37272385 -1.375 18.3125 C-3.45804538 18.25831674 -5.54149768 18.21962449 -7.625 18.1875 C-8.78515625 18.16429688 -9.9453125 18.14109375 -11.140625 18.1171875 C-14.23051065 18.3037748 -15.89814954 18.49614299 -18.375 20.3125 Z " fill="#1F3061" transform="translate(730.375,58.6875)"/>
<path d="M0 0 C4.54231452 3.66182964 6.87098336 6.6789148 7.71875 12.61328125 C7.71875 14.92328125 7.71875 17.23328125 7.71875 19.61328125 C-1.52125 19.61328125 -10.76125 19.61328125 -20.28125 19.61328125 C-18.12264932 27.04775056 -18.12264932 27.04775056 -15.28125 29.61328125 C-8.31458388 31.93550329 -1.09305259 31.0352555 5.71875 28.61328125 C5.71875 30.92328125 5.71875 33.23328125 5.71875 35.61328125 C1.09400346 37.40465684 -2.83052517 37.91068758 -7.78125 37.92578125 C-9.0496875 37.94253906 -10.318125 37.95929688 -11.625 37.9765625 C-17.08582845 37.43398019 -20.2231853 35.69539287 -24.03125 31.80078125 C-27.88802305 26.33701942 -29.0312518 21.2544262 -28.28125 14.61328125 C-27.14862615 8.54859536 -25.13634717 4.51434816 -20.1640625 0.76953125 C-13.92896268 -3.05949271 -6.35468672 -3.86286607 0 0 Z M-19.28125 9.61328125 C-19.61125 11.26328125 -19.94125 12.91328125 -20.28125 14.61328125 C-13.35125 14.61328125 -6.42125 14.61328125 0.71875 14.61328125 C-0.63353077 8.15889165 -0.63353077 8.15889165 -2.84375 5.67578125 C-9.40617086 2.81523882 -15.03031597 3.63540527 -19.28125 9.61328125 Z " fill="#1F3061" transform="translate(513.28125,58.38671875)"/>
<path d="M0 0 C4.54231452 3.66182964 6.87098336 6.6789148 7.71875 12.61328125 C7.71875 14.92328125 7.71875 17.23328125 7.71875 19.61328125 C-1.52125 19.61328125 -10.76125 19.61328125 -20.28125 19.61328125 C-18.12264932 27.04775056 -18.12264932 27.04775056 -15.28125 29.61328125 C-8.31458388 31.93550329 -1.09305259 31.0352555 5.71875 28.61328125 C5.71875 30.92328125 5.71875 33.23328125 5.71875 35.61328125 C1.09400346 37.40465684 -2.83052517 37.91068758 -7.78125 37.92578125 C-9.0496875 37.94253906 -10.318125 37.95929688 -11.625 37.9765625 C-17.08582845 37.43398019 -20.2231853 35.69539287 -24.03125 31.80078125 C-27.88802305 26.33701942 -29.0312518 21.2544262 -28.28125 14.61328125 C-27.14862615 8.54859536 -25.13634717 4.51434816 -20.1640625 0.76953125 C-13.92896268 -3.05949271 -6.35468672 -3.86286607 0 0 Z M-19.28125 9.61328125 C-19.61125 11.26328125 -19.94125 12.91328125 -20.28125 14.61328125 C-13.35125 14.61328125 -6.42125 14.61328125 0.71875 14.61328125 C-0.63353077 8.15889165 -0.63353077 8.15889165 -2.84375 5.67578125 C-9.40617086 2.81523882 -15.03031597 3.63540527 -19.28125 9.61328125 Z " fill="#1F3061" transform="translate(321.28125,58.38671875)"/>
<path d="M0 0 C3.48871618 2.79097294 5.77035435 5.49856304 7.1875 9.75 C7.1875 13.05 7.1875 16.35 7.1875 19.75 C-6.1775 20.245 -6.1775 20.245 -19.8125 20.75 C-17.50601364 27.27484588 -17.50601364 27.27484588 -12.8125 30.75 C-6.29118845 31.6917422 -0.05540148 30.6346495 6.1875 28.75 C6.1875 31.06 6.1875 33.37 6.1875 35.75 C1.56275346 37.54137559 -2.36177517 38.04740633 -7.3125 38.0625 C-8.5809375 38.07925781 -9.849375 38.09601563 -11.15625 38.11328125 C-16.69780556 37.56267797 -20.57979885 35.60305341 -24.125 31.3125 C-24.61613281 30.73628906 -25.10726562 30.16007812 -25.61328125 29.56640625 C-28.82924581 24.69531987 -28.35712205 18.34750443 -27.8125 12.75 C-26.24001719 7.10957253 -23.99894051 2.76537239 -18.8125 -0.25 C-12.38130181 -2.84721465 -6.3210463 -2.80935391 0 0 Z M-18.8125 8.75 C-19.1425 10.73 -19.4725 12.71 -19.8125 14.75 C-13.2125 14.75 -6.6125 14.75 0.1875 14.75 C-0.34810807 9.1453504 -0.34810807 9.1453504 -2.3125 6.375 C-7.88005058 2.75609212 -14.52304323 3.65627009 -18.8125 8.75 Z " fill="#1F3061" transform="translate(243.8125,58.25)"/>
<path d="M0 0 C4.59339362 3.54347508 6.61106766 6.03805362 8.1875 11.6875 C9.00078167 19.30965144 8.99484681 26.41167104 4.1875 32.6875 C-1.34738137 37.8270327 -5.20731183 38.03825435 -12.60546875 37.96484375 C-16.75467975 37.60602039 -18.83248713 36.59110228 -21.8125 33.6875 C-27.01973839 26.93216371 -27.44748895 21.02317316 -26.8125 12.6875 C-25.62196445 7.11916839 -23.38506725 3.22084742 -18.8125 -0.3125 C-12.4807435 -2.99132006 -6.21261647 -2.89922102 0 0 Z M-15.625 6.625 C-18.81700193 11.0938027 -20.05032024 15.36396216 -19.65625 20.87109375 C-18.70521233 25.70858342 -16.9223943 28.7649085 -12.8125 31.6875 C-9.3125 32.52083333 -9.3125 32.52083333 -5.8125 31.6875 C-1.72733224 28.6009288 0.22251229 25.70543609 1.1875 20.6875 C1.27587406 14.54550266 0.0962059 10.42532534 -3.8125 5.6875 C-8.0820797 3.55271015 -11.76765381 3.96771707 -15.625 6.625 Z " fill="#1E2F61" transform="translate(650.8125,58.3125)"/>
<path d="M0 0 C0 2.31 0 4.62 0 7 C-1.04607422 6.75636719 -1.04607422 6.75636719 -2.11328125 6.5078125 C-5.19398397 5.96587562 -8.06126815 5.86723296 -11.1875 5.875 C-12.23292969 5.87242188 -13.27835937 5.86984375 -14.35546875 5.8671875 C-16.97748861 5.82133277 -16.97748861 5.82133277 -19 7 C-19 8.98 -19 10.96 -19 13 C-17.89140625 13.24234375 -16.7828125 13.4846875 -15.640625 13.734375 C-14.17690757 14.07215594 -12.71337531 14.41073998 -11.25 14.75 C-10.52039063 14.90726563 -9.79078125 15.06453125 -9.0390625 15.2265625 C-4.60943664 16.27356498 -1.90632059 17.27168975 1 21 C2.60306924 24.20613847 2.48740461 27.52139997 2 31 C-0.16124298 34.55061347 -2.13013467 36.54960271 -6 38 C-8.69019085 38.19235855 -11.25154455 38.27938146 -13.9375 38.25 C-14.99227539 38.26160156 -14.99227539 38.26160156 -16.06835938 38.2734375 C-20.15398718 38.25812118 -23.32641173 37.81163257 -27 36 C-27 33.69 -27 31.38 -27 29 C-26.071875 29.33 -25.14375 29.66 -24.1875 30 C-19.24473489 31.41510658 -14.09682962 31.55188601 -9 31 C-8.01 30.34 -7.02 29.68 -6 29 C-6.495 26.525 -6.495 26.525 -7 24 C-8.66289062 23.54560547 -8.66289062 23.54560547 -10.359375 23.08203125 C-11.82318369 22.65977874 -13.28671102 22.23655001 -14.75 21.8125 C-15.47960937 21.61591797 -16.20921875 21.41933594 -16.9609375 21.21679688 C-21.7113196 19.81327489 -24.3902717 18.46222973 -27 14 C-27.76668962 10.51091247 -27.33082652 7.11278011 -26.3125 3.6875 C-23.90990933 0.59845485 -21.08395177 -0.69029949 -17.375 -1.75 C-11.55699927 -2.18096302 -5.55279807 -1.85093269 0 0 Z " fill="#1E2F61" transform="translate(285,58)"/>
<path d="M0 0 C0.1875 3.125 0.1875 3.125 0 6 C-0.71027344 5.84144531 -1.42054688 5.68289062 -2.15234375 5.51953125 C-7.61168503 4.52351974 -13.77880339 3.53726077 -18.5625 6.6875 C-21.59248288 11.56182028 -22.49942858 15.20662845 -22 21 C-21.087655 24.29642902 -20.15484336 27.2554946 -17.1640625 29.18359375 C-11.51474575 31.31483419 -5.45561271 30.23820008 0 28 C0 30.31 0 32.62 0 35 C-5.39669858 38.34782791 -11.89946168 37.55649152 -18 37 C-23.4230856 35.4012344 -26.30968414 31.86326328 -29 27 C-31.12980695 20.61057915 -31.19604264 12.59990967 -28.3125 6.4375 C-25.48243321 1.75359155 -22.49235764 -0.46882186 -17.3125 -2.3125 C-11.36186719 -3.59086789 -5.10633134 -3.40422089 0 0 Z " fill="#1E2F61" transform="translate(435,59)"/>
<path d="M0 0 C4.08375 -0.0928125 4.08375 -0.0928125 8.25 -0.1875 C9.10110352 -0.21481201 9.95220703 -0.24212402 10.82910156 -0.27026367 C14.17017053 -0.30706133 16.4849311 -0.24406342 19.5390625 1.203125 C21.4833933 3.5945479 21.35348277 4.89867915 21.125 7.9375 C20.86170448 11.7323898 21.22090149 13.66419029 23 17 C22.86807857 20.23207506 22.6943814 22.21376921 20.5234375 24.671875 C16.6749693 26.69738458 13.02140231 26.31664782 8.75 26.1875 C5.8625 26.125625 2.975 26.06375 0 26 C0 17.42 0 8.84 0 0 Z M8 5 C8 6.65 8 8.3 8 10 C9.65 9.67 11.3 9.34 13 9 C13.33 8.01 13.66 7.02 14 6 C11.03 5.505 11.03 5.505 8 5 Z M8 15 C8 16.98 8 18.96 8 21 C9.65 21 11.3 21 13 21 C13.66 19.68 14.32 18.36 15 17 C13.16116119 14.71271266 13.16116119 14.71271266 10.375 14.875 C9.199375 14.936875 9.199375 14.936875 8 15 Z " fill="#9CD2B6" transform="translate(686,121)"/>
<path d="M0 0 C2.64 0 5.28 0 8 0 C8 17.16 8 34.32 8 52 C5.36 52 2.72 52 0 52 C0 34.84 0 17.68 0 0 Z " fill="#1B2A5D" transform="translate(687,43)"/>
<path d="M0 0 C2.64 0 5.28 0 8 0 C8 17.16 8 34.32 8 52 C5.36 52 2.72 52 0 52 C0 34.84 0 17.68 0 0 Z " fill="#1B2A5D" transform="translate(668,43)"/>
<path d="M0 0 C0 2.31 0 4.62 0 7 C-0.90492188 6.94779297 -0.90492188 6.94779297 -1.828125 6.89453125 C-6.85020241 6.67190661 -6.85020241 6.67190661 -11.5 8.3125 C-14.29416539 11.45593606 -14.17350898 14.74018125 -14.31640625 18.76171875 C-14.35830078 19.87998047 -14.40019531 20.99824219 -14.44335938 22.15039062 C-14.48267578 23.31763672 -14.52199219 24.48488281 -14.5625 25.6875 C-14.60568359 26.86634766 -14.64886719 28.04519531 -14.69335938 29.25976562 C-14.79951176 32.17305883 -14.90156242 35.08643757 -15 38 C-17.64 38 -20.28 38 -23 38 C-23 25.46 -23 12.92 -23 0 C-20.36 0 -17.72 0 -15 0 C-14.67 0.99 -14.34 1.98 -14 3 C-13.443125 2.525625 -12.88625 2.05125 -12.3125 1.5625 C-8.13901412 -1.25742289 -4.78567887 -1.23060314 0 0 Z " fill="#1E3062" transform="translate(552,57)"/>
<path d="M0 0 C0 2.31 0 4.62 0 7 C-0.59167969 6.94199219 -1.18335938 6.88398437 -1.79296875 6.82421875 C-6.26014273 6.56915988 -8.30864991 6.48148744 -12 9.25 C-14.86709613 13.19225717 -15.12108199 16.4037289 -15.31640625 21.203125 C-15.35830078 22.1828125 -15.40019531 23.1625 -15.44335938 24.171875 C-15.50233398 25.69554687 -15.50233398 25.69554687 -15.5625 27.25 C-15.60568359 28.28125 -15.64886719 29.3125 -15.69335938 30.375 C-15.79925682 32.9165387 -15.90133443 35.45817196 -16 38 C-18.31 38 -20.62 38 -23 38 C-23 25.46 -23 12.92 -23 0 C-20.69 0 -18.38 0 -16 0 C-15.67 0.99 -15.34 1.98 -15 3 C-14.2575 2.525625 -13.515 2.05125 -12.75 1.5625 C-8.02492558 -1.12220138 -5.33857708 -1.09198168 0 0 Z " fill="#1F3061" transform="translate(402,57)"/>
<path d="M0 0 C1.24394531 -0.03738281 2.48789062 -0.07476562 3.76953125 -0.11328125 C7.1875 0.3125 7.1875 0.3125 9.62109375 1.81640625 C11.82790647 5.3329981 11.62155565 8.55575006 11.4375 12.5625 C11.41945313 13.30757812 11.40140625 14.05265625 11.3828125 14.8203125 C11.33585649 16.65159701 11.26411652 18.48221649 11.1875 20.3125 C9.16927083 20.27994792 7.15104167 20.24739583 5.1328125 20.21484375 C3.10564596 20.18600758 3.10564596 20.18600758 1.1875 21.3125 C-2.0388676 21.5930537 -4.21368254 21.58039202 -7.1875 20.25 C-8.8125 18.3125 -8.8125 18.3125 -9.25 14.8125 C-8.8125 11.3125 -8.8125 11.3125 -7.578125 9.66796875 C-4.39947619 7.22772287 -0.69468373 7.04392592 3.1875 6.3125 C-0.4425 6.3125 -4.0725 6.3125 -7.8125 6.3125 C-7.8125 -0.96986543 -6.68087596 0.13072775 0 0 Z M-0.8125 12.3125 C-0.8125 13.6325 -0.8125 14.9525 -0.8125 16.3125 C1.17241642 16.04573796 1.17241642 16.04573796 3.1875 15.3125 C3.5175 14.3225 3.8475 13.3325 4.1875 12.3125 C2.5375 12.3125 0.8875 12.3125 -0.8125 12.3125 Z " fill="#9BD2B6" transform="translate(761.8125,126.6875)"/>
<path d="M0 0 C3.94603257 2.65753214 4.82066995 4.15852824 5.8125 8.8125 C5.874375 9.864375 5.93625 10.91625 6 12 C1.38 12.33 -3.24 12.66 -8 13 C-8 13.66 -8 14.32 -8 15 C-3.52572076 15.08948558 0.60563789 14.85743651 5 14 C5 15.65 5 17.3 5 19 C0.4288283 21.35931443 -3.96734119 21.60282301 -9 21 C-12.63467079 19.37599816 -13.77408696 18.33886956 -16 15 C-16.73965025 10.40728797 -16.60961194 6.97537911 -14.125 3 C-9.97364353 -0.90715903 -5.47621423 -0.74910478 0 0 Z M-7 5 C-7.99 6.485 -7.99 6.485 -9 8 C-6.69 8 -4.38 8 -2 8 C-2.33 7.01 -2.66 6.02 -3 5 C-4.32 5 -5.64 5 -7 5 Z " fill="#9CD2B6" transform="translate(728,127)"/>
<path d="M0 0 C2.31 0 4.62 0 7 0 C7 1.65 7 3.3 7 5 C8.98 5 10.96 5 13 5 C13 6.98 13 8.96 13 11 C11.02 11 9.04 11 7 11 C7 13.97 7 16.94 7 20 C8.98 20 10.96 20 13 20 C13 21.65 13 23.3 13 25 C11.20866022 25.05391993 9.41686101 25.09275571 7.625 25.125 C6.62726562 25.14820313 5.62953125 25.17140625 4.6015625 25.1953125 C2 25 2 25 0 23 C-0.1953125 20.1796875 -0.1953125 20.1796875 -0.125 16.875 C-0.10695313 15.77929688 -0.08890625 14.68359375 -0.0703125 13.5546875 C-0.04710937 12.71164063 -0.02390625 11.86859375 0 11 C-0.99 11 -1.98 11 -3 11 C-3 9.02 -3 7.04 -3 5 C-2.01 5 -1.02 5 0 5 C0 3.35 0 1.7 0 0 Z " fill="#9DD3B6" transform="translate(738,122)"/>
<path d="M0 0 C2.3125 1.625 2.3125 1.625 4 4 C4.5625 7.4375 4.5625 7.4375 4 11 C1.55401113 14.38121991 0.10703441 15.76936783 -4 16.625 C-8.10703441 15.76936783 -9.55401113 14.38121991 -12 11 C-12.5625 7.4375 -12.5625 7.4375 -12 4 C-8.59412268 -0.46287373 -5.37009684 -1.70271363 0 0 Z " fill="#1F3061" transform="translate(38,62)"/>
<path d="M0 0 C3.00342896 2.05497771 3.83287356 3.47633714 4.9375 6.9375 C5.01221891 10.59872681 4.21363944 12.1304674 2 15 C-1.05693322 16.52846661 -3.62984547 16.23242445 -7 16 C-9.375 14.9375 -9.375 14.9375 -11 13 C-12.10373378 9.02655839 -12.41543583 6.91000228 -10.6875 3.125 C-7.63346061 -0.72082738 -4.73012808 -0.40776966 0 0 Z " fill="#1F3061" transform="translate(98,104)"/>
<path d="M0 0 C4.10703441 0.85563217 5.55401113 2.24378009 8 5.625 C8.62491523 9.58279649 8.61006839 11.63363886 6.5 15.0625 C2.97873756 17.26328902 0.04560357 17.42914661 -4 16.625 C-6.5 15.0625 -6.5 15.0625 -8 12.625 C-8.5625 9.1875 -8.5625 9.1875 -8 5.625 C-5.55401113 2.24378009 -4.10703441 0.85563217 0 0 Z " fill="#1F3061" transform="translate(52,99.375)"/>
<path d="M0 0 C2.375 1.125 2.375 1.125 4 3 C5.17407634 6.60050078 5.32759676 8.27928713 3.75 11.75 C2 14 2 14 -1 16 C-4.33936274 15.82110557 -6.97604532 15.61437281 -9.875 13.875 C-11.69441423 10.84264294 -12 8.52133145 -12 5 C-8.64275682 0.06904909 -5.83060884 -0.84808856 0 0 Z " fill="#1F3061" transform="translate(62,27)"/>
<path d="M0 0 C2.80819452 2.58649496 3.84616954 4.26161378 4.625 8 C3.90391211 11.46122187 2.63992305 13.05420345 -0.2109375 15.1484375 C-3.41545328 16.67373104 -5.72950713 16.04902601 -9 15 C-11.83333391 12.62365543 -11.97885738 11.19733117 -12.375 7.5 C-11.98618578 3.87106728 -11.59227603 2.4962658 -9 0 C-5.39297148 -1.20234284 -3.64185324 -1.0405295 0 0 Z " fill="#1F3061" transform="translate(105,31)"/>
<path d="M0 0 C3.32274404 2.45594125 4.77618008 3.9256644 5.625 8 C4.76936783 12.10703441 3.38121991 13.55401113 0 16 C-3.95779649 16.62491523 -6.00863886 16.61006839 -9.4375 14.5 C-11.33241448 11.46813683 -11.64036692 9.43919544 -11.44921875 5.90625 C-11 4 -11 4 -8.875 1.5 C-5.46714413 -0.27801176 -3.78454468 -0.70960213 0 0 Z " fill="#1F3061" transform="translate(122,69)"/>
</svg>
